<svg width="300" height="477" viewBox="0 0 300 477" fill="none" xmlns="http://www.w3.org/2000/svg">
<mask id="mask0_1442:112" style="mask-type:alpha" maskUnits="userSpaceOnUse" x="0" y="0" width="300" height="477">
<path d="M39.6825 476.984C61.5986 476.984 79.3651 459.218 79.3651 437.302C79.3651 415.386 61.5986 397.619 39.6825 397.619C17.7665 397.619 0 415.386 0 437.302C0 459.218 17.7665 476.984 39.6825 476.984Z" fill="white"/>
<path d="M0 262.143C0 259.381 2.23858 257.143 5 257.143H128.333C131.095 257.143 133.333 259.381 133.333 262.143V335.476C133.333 338.238 131.095 340.476 128.333 340.476H5C2.23857 340.476 0 338.238 0 335.476V262.143Z" fill="white"/>
<path d="M0 133.571C0 130.81 2.23858 128.571 5 128.571H252.143C254.904 128.571 257.143 130.81 257.143 133.571V206.905C257.143 209.666 254.904 211.905 252.143 211.905H5.00001C2.23858 211.905 0 209.666 0 206.905V133.571Z" fill="white"/>
<path d="M0 5.00001C0 2.23858 2.23858 0 5 0H295C297.761 0 300 2.23858 300 5V78.3333C300 81.0948 297.761 83.3333 295 83.3333H5C2.23857 83.3333 0 81.0948 0 78.3333V5.00001Z" fill="white"/>
</mask>
<g mask="url(#mask0_1442:112)">
<path d="M39.6825 476.984C61.5986 476.984 79.3651 459.218 79.3651 437.302C79.3651 415.386 61.5986 397.619 39.6825 397.619C17.7665 397.619 0 415.386 0 437.302C0 459.218 17.7665 476.984 39.6825 476.984Z" fill="#85D291"/>
<path d="M0 262.143C0 259.381 2.23858 257.143 5 257.143H128.333C131.095 257.143 133.333 259.381 133.333 262.143V335.476C133.333 338.238 131.095 340.476 128.333 340.476H5C2.23857 340.476 0 338.238 0 335.476V262.143Z" fill="#85D291"/>
<path d="M0 133.571C0 130.81 2.23858 128.571 5 128.571H252.143C254.904 128.571 257.143 130.81 257.143 133.571V206.905C257.143 209.666 254.904 211.905 252.143 211.905H5.00001C2.23858 211.905 0 209.666 0 206.905V133.571Z" fill="#85D291"/>
<path d="M0 5.00001C0 2.23858 2.23858 0 5 0H295C297.761 0 300 2.23858 300 5V78.3333C300 81.0948 297.761 83.3333 295 83.3333H5C2.23857 83.3333 0 81.0948 0 78.3333V5.00001Z" fill="#85D291"/>
<path d="M39.6825 478.484C62.427 478.484 80.8651 460.046 80.8651 437.302H77.8651C77.8651 458.389 60.7702 475.484 39.6825 475.484V478.484ZM80.8651 437.302C80.8651 414.557 62.427 396.119 39.6825 396.119V399.119C60.7702 399.119 77.8651 416.214 77.8651 437.302H80.8651ZM39.6825 396.119C16.9381 396.119 -1.5 414.557 -1.5 437.302H1.5C1.5 416.214 18.5949 399.119 39.6825 399.119V396.119ZM-1.5 437.302C-1.5 460.046 16.9381 478.484 39.6825 478.484V475.484C18.5949 475.484 1.5 458.389 1.5 437.302H-1.5ZM1.5 262.143C1.5 260.21 3.067 258.643 5 258.643V255.643C1.41015 255.643 -1.5 258.553 -1.5 262.143H1.5ZM5 258.643H128.333V255.643H5V258.643ZM128.333 258.643C130.266 258.643 131.833 260.21 131.833 262.143H134.833C134.833 258.553 131.923 255.643 128.333 255.643V258.643ZM131.833 262.143V335.476H134.833V262.143H131.833ZM131.833 335.476C131.833 337.409 130.266 338.976 128.333 338.976V341.976C131.923 341.976 134.833 339.066 134.833 335.476H131.833ZM128.333 338.976H5V341.976H128.333V338.976ZM5 338.976C3.067 338.976 1.5 337.409 1.5 335.476H-1.5C-1.5 339.066 1.41014 341.976 5 341.976V338.976ZM1.5 335.476V262.143H-1.5V335.476H1.5ZM1.5 133.571C1.5 131.638 3.067 130.071 5 130.071V127.071C1.41015 127.071 -1.5 129.982 -1.5 133.571H1.5ZM5 130.071H252.143V127.071H5V130.071ZM252.143 130.071C254.076 130.071 255.643 131.638 255.643 133.571H258.643C258.643 129.982 255.733 127.071 252.143 127.071V130.071ZM255.643 133.571V206.905H258.643V133.571H255.643ZM255.643 206.905C255.643 208.838 254.076 210.405 252.143 210.405V213.405C255.733 213.405 258.643 210.495 258.643 206.905H255.643ZM252.143 210.405H5.00001V213.405H252.143V210.405ZM5.00001 210.405C3.06701 210.405 1.5 208.838 1.5 206.905H-1.5C-1.5 210.495 1.41016 213.405 5.00001 213.405V210.405ZM1.5 206.905V133.571H-1.5V206.905H1.5ZM1.5 5.00001C1.5 3.06701 3.06701 1.5 5 1.5V-1.5C1.41015 -1.5 -1.5 1.41016 -1.5 5.00001H1.5ZM5 1.5H295V-1.5H5V1.5ZM295 1.5C296.933 1.5 298.5 3.06701 298.5 5H301.5C301.5 1.41015 298.59 -1.5 295 -1.5V1.5ZM298.5 5V78.3333H301.5V5H298.5ZM298.5 78.3333C298.5 80.2663 296.933 81.8333 295 81.8333V84.8333C298.59 84.8333 301.5 81.9232 301.5 78.3333H298.5ZM295 81.8333H5V84.8333H295V81.8333ZM5 81.8333C3.067 81.8333 1.5 80.2663 1.5 78.3333H-1.5C-1.5 81.9232 1.41014 84.8333 5 84.8333V81.8333ZM1.5 78.3333V5.00001H-1.5V78.3333H1.5Z" fill="#85D291"/>
</g>
</svg>
